# xmcd CD database file
#
# Track frame offsets:
#	150
#	31967
#	53927
#	73567
#	154933
#	184047
#	210897
#	239426
#	309369
#
# Disc length: 4657 seconds
#
# Revision: 0
# Processed by: cddbd v1.5.2PL0 Copyright (c) Steve Scherf et al.
# Submitted via: Feurio! 1.68 - http://www.feurio.com
#
DISCID=71122f09
DTITLE=John Mayall - 70th Birthday Concert [CD2)
DYEAR=1900
DGENRE=
TTITLE0=Please Mr. Lotton 
TTITLE1=Hideaway
TTITLE2=All your love
TTITLE3=Have you heard
TTITLE4=Hoochie coochie man
TTITLE5=I`m tore down
TTITLE6=It ain`t right
TTITLE7=California
TTITLE8=Talk to your daughter
EXTD=
EXTT0=
EXTT1=
EXTT2=
EXTT3=
EXTT4=
EXTT5=
EXTT6=
EXTT7=
EXTT8=
PLAYORDER=
